 <svg  version="1.0" xmlns="http://www.w3.org/2000/svg"  width="300.000000pt" height="300.000000pt" viewBox="0 0 300.000000 300.000000"  preserveAspectRatio="xMidYMid meet">  <g transform="translate(0.000000,300.000000) scale(0.050000,-0.050000)" fill="#ff0000" stroke="none"> <path d="M3006 4591 c-517 -117 -1291 -934 -1559 -1646 -75 -201 -68 -215 68 -133 365 220 1117 275 1896 139 370 -64 750 -191 854 -285 75 -68 -15 274 -119 452 -46 78 -47 87 -14 76 56 -18 498 -154 501 -154 1 0 13 27 27 61 14 33 43 73 65 88 46 33 12 77 -523 660 -606 661 -860 818 -1196 742z m318 -203 c42 -19 76 -42 76 -52 0 -10 8 -14 17 -8 9 6 47 -21 84 -59 37 -38 75 -69 84 -69 40 0 73 -54 49 -79 -13 -13 -15 -22 -4 -19 50 12 210 -92 210 -137 0 -11 32 -45 71 -75 40 -30 67 -59 61 -65 -6 -6 27 -38 74 -71 93 -67 116 -94 101 -118 -5 -9 5 -22 22 -28 17 -7 31 -25 31 -41 0 -16 9 -24 20 -17 11 7 20 2 20 -10 0 -12 10 -16 23 -8 16 10 20 1 12 -29 -6 -24 -5 -39 2 -35 7 5 31 -4 52 -20 21 -15 27 -28 14 -28 -14 0 -20 -9 -13 -20 7 -12 20 -16 29 -10 9 5 22 -4 29 -22 22 -56 14 -70 -27 -49 -45 25 -121 28 -121 5 0 -51 -93 -4 -167 84 -122 147 -333 361 -333 339 0 -11 16 -37 36 -58 20 -22 75 -93 124 -159 48 -66 99 -131 112 -145 59 -59 56 -185 -3 -185 -16 0 -29 -10 -29 -22 0 -15 -12 -13 -35 5 -30 23 -32 23 -13 -3 13 -16 27 -58 31 -91 10 -68 8 -68 -133 -38 -44 10 -87 18 -96 18 -8 1 -22 10 -30 21 -8 11 -67 22 -133 25 -65 2 -127 13 -137 23 -12 12 -38 12 -66 1 -31 -12 -55 -10 -72 7 -14 13 -80 26 -146 30 -66 3 -149 13 -185 23 -39 11 -69 10 -76 -1 -7 -10 -20 -14 -30 -8 -52 33 -708 9 -769 -27 -58 -34 -75 -20 -64 58 6 45 2 74 -8 68 -10 -6 -19 -36 -20 -65 -2 -43 -5 -46 -13 -14 -10 38 -11 38 -24 3 -18 -52 -145 -94 -188 -63 -31 23 -25 50 12 50 9 0 11 -10 3 -23 -8 -14 -5 -18 7 -10 12 7 16 32 10 56 -8 32 -5 39 15 27 17 -11 21 -8 12 6 -19 32 25 108 52 91 13 -7 17 -4 9 9 -20 32 52 139 85 128 20 -6 24 1 16 23 -8 22 -2 33 18 33 17 0 26 8 20 17 -6 10 6 34 28 53 38 34 39 33 34 -27 -2 -35 -11 -63 -19 -63 -8 0 -15 -13 -15 -30 0 -16 8 -30 18 -30 22 0 50 96 44 147 -3 23 3 32 16 24 12 -7 22 -3 22 9 0 26 155 298 190 333 13 12 47 51 77 87 34 40 65 60 84 52 17 -6 26 -4 20 6 -6 9 13 41 42 70 49 48 74 60 112 54 8 -1 15 7 15 18 0 11 14 20 30 20 17 0 30 8 30 17 0 20 90 63 132 63 18 0 25 -10 18 -25 -7 -14 0 -9 15 9 63 77 275 100 399 44z"/> <path d="M4920 3280 c-30 -19 -15 -21 215 -28 36 -1 65 -8 65 -15 0 -7 32 -27 70 -46 39 -18 70 -46 70 -63 0 -17 8 -25 18 -19 34 21 67 -50 65 -142 -9 -454 -650 -573 -790 -147 -6 18 -10 12 -11 -16 -12 -331 540 -482 786 -215 154 169 80 631 -102 631 -14 0 -26 8 -26 18 0 45 -300 81 -360 42z"/> <path d="M1309 2645 c-177 -184 -196 -610 -38 -850 57 -87 111 -96 213 -37 379 221 1800 257 2370 61 134 -46 159 -48 127 -11 -51 62 -491 210 -721 243 -27 4 -113 16 -191 27 -77 11 -300 22 -495 23 -394 3 -675 55 -769 144 -35 33 -51 37 -69 19 -19 -19 -16 -24 10 -24 19 0 34 -9 34 -19 0 -11 36 -30 80 -43 44 -14 80 -33 80 -43 0 -11 14 -14 30 -8 17 7 30 1 30 -13 0 -38 100 -78 113 -45 10 28 27 29 102 4 36 -13 40 -21 20 -42 -21 -22 -27 -21 -39 6 -12 29 -13 29 -15 -3 -1 -27 -11 -33 -41 -24 -23 7 -40 4 -40 -9 0 -11 -10 -21 -21 -21 -12 0 -15 10 -7 23 10 16 5 18 -14 6 -15 -10 -46 -16 -68 -13 -34 5 -35 2 -10 -16 23 -17 15 -20 -35 -10 -43 9 -65 5 -65 -10 0 -14 -16 -18 -41 -10 -22 7 -54 3 -69 -10 -16 -13 -37 -18 -48 -11 -10 6 -25 3 -31 -8 -7 -10 -25 -14 -42 -8 -16 6 -29 2 -29 -9 0 -10 -18 -24 -40 -30 -22 -6 -40 0 -40 12 0 12 -13 4 -29 -17 -17 -22 -30 -28 -30 -15 -1 14 -15 20 -33 13 -25 -10 -26 -16 -5 -30 18 -11 9 -15 -27 -13 -40 3 -48 11 -34 29 15 18 10 21 -19 14 -21 -6 -45 1 -54 14 -9 16 -7 20 7 12 11 -8 28 -3 36 10 8 13 6 18 -6 11 -11 -7 -37 1 -58 18 -21 17 -27 25 -13 18 15 -7 8 19 -16 61 -33 59 -35 72 -10 62 20 -7 31 -1 31 19 0 17 -9 25 -20 18 -11 -7 -20 2 -20 20 0 18 7 28 15 23 8 -5 16 14 18 42 2 37 -2 43 -15 23 -14 -23 -17 -21 -18 7 0 19 11 35 25 35 18 1 17 6 -3 18 -20 13 -23 34 -11 75 8 31 14 64 12 72 -2 8 4 15 14 15 9 0 18 14 20 30 2 17 5 43 6 59 2 16 11 25 20 19 16 -9 25 20 19 57 -1 8 5 15 14 15 8 0 15 18 15 40 0 51 1 51 -62 -15z"/> <path d="M4370 2488 c8 -32 19 -89 23 -128 17 -143 20 -159 33 -173 22 -21 16 -51 -6 -37 -11 7 -20 -2 -20 -20 0 -18 8 -27 18 -21 10 6 23 -4 30 -21 9 -23 4 -29 -18 -21 -36 14 -39 -9 -5 -46 20 -22 20 -24 -2 -12 -22 13 -23 8 -4 -27 14 -27 15 -42 2 -42 -11 0 -26 -35 -33 -79 -7 -43 -25 -83 -40 -89 -16 -6 -28 -26 -28 -45 0 -18 -6 -28 -13 -21 -7 7 -28 4 -47 -6 -26 -14 -45 -7 -77 26 -24 26 -70 47 -107 50 l-66 5 65 -41 c36 -22 71 -40 76 -40 6 0 29 -17 50 -37 176 -164 351 354 242 713 -43 139 -106 236 -73 112z"/> </g> </svg> 